<svg width="147" height="147" viewBox="0 0 147 147" fill="none" xmlns="http://www.w3.org/2000/svg">
<path d="M95.6133 53.6117C97.3166 53.6117 98.95 54.285 100.154 55.4834C101.359 56.6818 102.035 58.3072 102.035 60.0021V86.9978C102.035 88.6926 101.359 90.3181 100.154 91.5165C98.95 92.7149 97.3166 93.3882 95.6133 93.3882H51.3868C50.5435 93.3882 49.7084 93.2229 48.9292 92.9017C48.1501 92.5806 47.4421 92.1099 46.8458 91.5165C46.2494 90.9231 45.7764 90.2186 45.4536 89.4433C45.1309 88.668 44.9648 87.837 44.9648 86.9978V60.0021C44.9648 58.3072 45.6414 56.6818 46.8458 55.4834C48.0501 54.285 49.6836 53.6117 51.3868 53.6117H95.6133ZM95.6133 57.8719H51.3868C50.8191 57.8719 50.2746 58.0964 49.8731 58.4958C49.4717 58.8953 49.2461 59.4371 49.2461 60.0021V86.9978C49.2461 88.1736 50.2052 89.1279 51.3868 89.1279H95.6133C96.1811 89.1279 96.7256 88.9035 97.127 88.504C97.5285 88.1045 97.754 87.5627 97.754 86.9978V60.0021C97.754 59.4371 97.5285 58.8953 97.127 58.4958C96.7256 58.0964 96.1811 57.8719 95.6133 57.8719ZM58.5224 80.5932H88.492C89.0344 80.5934 89.5565 80.7984 89.9528 81.1669C90.3491 81.5353 90.5901 82.0397 90.627 82.5782C90.664 83.1166 90.4942 83.6489 90.1519 84.0676C89.8097 84.4863 89.3204 84.76 88.7831 84.8336L88.492 84.8535H58.5224C57.9801 84.8533 57.458 84.6483 57.0617 84.2798C56.6653 83.9114 56.4244 83.407 56.3874 82.8685C56.3504 82.3301 56.5202 81.7978 56.8625 81.3791C57.2048 80.9605 57.694 80.6867 58.2313 80.6131L58.5224 80.5932H88.492H58.5224ZM86.3513 70.6527C87.1083 70.6527 87.8343 70.9519 88.3696 71.4845C88.9048 72.0172 89.2056 72.7396 89.2056 73.4928C89.2056 74.2461 88.9048 74.9685 88.3696 75.5011C87.8343 76.0338 87.1083 76.333 86.3513 76.333C85.5943 76.333 84.8683 76.0338 84.3331 75.5011C83.7978 74.9685 83.4971 74.2461 83.4971 73.4928C83.4971 72.7396 83.7978 72.0172 84.3331 71.4845C84.8683 70.9519 85.5943 70.6527 86.3513 70.6527ZM69.2401 70.6527C69.9971 70.6527 70.7231 70.9519 71.2584 71.4845C71.7936 72.0172 72.0944 72.7396 72.0944 73.4928C72.0944 74.2461 71.7936 74.9685 71.2584 75.5011C70.7231 76.0338 69.9971 76.333 69.2401 76.333C68.4831 76.333 67.7571 76.0338 67.2219 75.5011C66.6866 74.9685 66.3859 74.2461 66.3859 73.4928C66.3859 72.7396 66.6866 72.0172 67.2219 71.4845C67.7571 70.9519 68.4831 70.6527 69.2401 70.6527ZM60.6774 70.6527C61.4344 70.6527 62.1604 70.9519 62.6956 71.4845C63.2309 72.0172 63.5316 72.7396 63.5316 73.4928C63.5316 74.2461 63.2309 74.9685 62.6956 75.5011C62.1604 76.0338 61.4344 76.333 60.6774 76.333C59.9204 76.333 59.1944 76.0338 58.6591 75.5011C58.1239 74.9685 57.8231 74.2461 57.8231 73.4928C57.8231 72.7396 58.1239 72.0172 58.6591 71.4845C59.1944 70.9519 59.9204 70.6527 60.6774 70.6527ZM77.8028 70.6527C78.5598 70.6527 79.2858 70.9519 79.8211 71.4845C80.3564 72.0172 80.6571 72.7396 80.6571 73.4928C80.6571 74.2461 80.3564 74.9685 79.8211 75.5011C79.2858 76.0338 78.5598 76.333 77.8028 76.333C77.0459 76.333 76.3199 76.0338 75.7846 75.5011C75.2493 74.9685 74.9486 74.2461 74.9486 73.4928C74.9486 72.7396 75.2493 72.0172 75.7846 71.4845C76.3199 70.9519 77.0459 70.6527 77.8028 70.6527ZM56.3818 62.1322C57.1387 62.1322 57.8647 62.4314 58.4 62.964C58.9353 63.4967 59.236 64.2191 59.236 64.9723C59.236 65.7256 58.9353 66.448 58.4 66.9806C57.8647 67.5133 57.1387 67.8125 56.3818 67.8125C55.6248 67.8125 54.8988 67.5133 54.3635 66.9806C53.8282 66.448 53.5275 65.7256 53.5275 64.9723C53.5275 64.2191 53.8282 63.4967 54.3635 62.964C54.8988 62.4314 55.6248 62.1322 56.3818 62.1322ZM64.9302 62.1322C65.6872 62.1322 66.4132 62.4314 66.9485 62.964C67.4837 63.4967 67.7845 64.2191 67.7845 64.9723C67.7845 65.7256 67.4837 66.448 66.9485 66.9806C66.4132 67.5133 65.6872 67.8125 64.9302 67.8125C64.1732 67.8125 63.4472 67.5133 62.912 66.9806C62.3767 66.448 62.076 65.7256 62.076 64.9723C62.076 64.2191 62.3767 63.4967 62.912 62.964C63.4472 62.4314 64.1732 62.1322 64.9302 62.1322ZM73.4929 62.1322C74.2499 62.1322 74.9759 62.4314 75.5112 62.964C76.0465 63.4967 76.3472 64.2191 76.3472 64.9723C76.3472 65.7256 76.0465 66.448 75.5112 66.9806C74.9759 67.5133 74.2499 67.8125 73.4929 67.8125C72.7359 67.8125 72.01 67.5133 71.4747 66.9806C70.9394 66.448 70.6387 65.7256 70.6387 64.9723C70.6387 64.2191 70.9394 63.4967 71.4747 62.964C72.01 62.4314 72.7359 62.1322 73.4929 62.1322ZM82.0557 62.1322C82.8127 62.1322 83.5387 62.4314 84.0739 62.964C84.6092 63.4967 84.9099 64.2191 84.9099 64.9723C84.9099 65.7256 84.6092 66.448 84.0739 66.9806C83.5387 67.5133 82.8127 67.8125 82.0557 67.8125C81.2987 67.8125 80.5727 67.5133 80.0374 66.9806C79.5021 66.448 79.2014 65.7256 79.2014 64.9723C79.2014 64.2191 79.5021 63.4967 80.0374 62.964C80.5727 62.4314 81.2987 62.1322 82.0557 62.1322ZM90.6184 62.1322C91.3754 62.1322 92.1014 62.4314 92.6367 62.964C93.1719 63.4967 93.4726 64.2191 93.4726 64.9723C93.4726 65.7256 93.1719 66.448 92.6367 66.9806C92.1014 67.5133 91.3754 67.8125 90.6184 67.8125C89.8614 67.8125 89.1354 67.5133 88.6001 66.9806C88.0649 66.448 87.7642 65.7256 87.7642 64.9723C87.7642 64.2191 88.0649 63.4967 88.6001 62.964C89.1354 62.4314 89.8614 62.1322 90.6184 62.1322Z" fill="#EC7979"/>
<circle cx="73.5001" cy="73.5" r="39.2765" stroke="#EC7979"/>
</svg>
