<svg width="147" height="147" viewBox="0 0 147 147" fill="none" xmlns="http://www.w3.org/2000/svg">
<path d="M65.485 101.872C65.0754 101.696 64.7351 101.386 64.5177 100.991C64.3003 100.596 64.2182 100.139 64.2843 99.6914L67.9263 75.5386H58.2609C57.9545 75.547 57.6502 75.4836 57.3717 75.3532C57.0931 75.2229 56.8477 75.0291 56.6543 74.7869C56.461 74.5446 56.3248 74.2604 56.2564 73.956C56.188 73.6517 56.1891 73.3354 56.2598 73.0316L62.2631 46.5349C62.3688 46.0789 62.6254 45.6738 62.9899 45.388C63.3544 45.1022 63.8044 44.9529 64.2643 44.9655H84.2756C84.5745 44.9644 84.8699 45.0316 85.14 45.1621C85.4101 45.2926 85.6481 45.4831 85.8364 45.7196C86.0274 45.9587 86.1627 46.2389 86.232 46.539C86.3013 46.8391 86.3029 47.1513 86.2367 47.4521L82.7747 63.3093H92.2801C92.6551 63.3086 93.0228 63.4152 93.3413 63.617C93.6597 63.8188 93.9161 64.1077 94.0811 64.4507C94.2245 64.78 94.2797 65.1421 94.241 65.5001C94.2023 65.8581 94.0712 66.1993 93.861 66.4889L67.8463 101.139C67.6705 101.404 67.4357 101.623 67.161 101.779C66.8864 101.935 66.5795 102.023 66.2654 102.035C65.9976 102.03 65.7331 101.975 65.485 101.872ZM77.7719 67.3858L81.7741 49.0419H65.8652L60.7823 71.4622H72.609L69.4272 92.415L88.2778 67.3858H77.7719Z" fill="#EC7979"/>
<circle cx="73.5" cy="73.5" r="39.2765" stroke="#EC7979"/>
</svg>
